<svg xmlns="http://www.w3.org/2000/svg" width="1792" height="1792" fill="#6480A7"><g style="line-height:1.25;font-variation-settings:normal"><path fill="#6480a7" font-size="1610.89" font-weight="400" aria-label="?" font-family="'Bauhaus 93'" d="M928.953 1132.77l-450.158-55.432 12.481-72.76q24.761-144.363 70.423-208.32 45.858-65.111 142.185-92.165l88.45-24.487q100.163-27.764 112.444-99.368 7.133-41.576-18.248-74.183-25.382-32.61-69.063-37.987-118.91-14.643-145.85 142.425l-418.609-51.548Q289.06 348.754 413.763 228.49q92.066-88.905 222.092-131.859 130.028-42.953 258.643-27.116 228.113 28.088 358.662 191.577 131.96 162.481 95.511 374.984Q1303.705 898.239 1062.223 977q-78.745 25.682-98.877 49.148-20.13 23.465-34.393 106.618zm-227.691 34.464q118.91 14.64 189.78 107.098 72.084 92.607 52.671 205.788-19.412 113.18-118.017 182.41-98.403 68.074-218.527 53.283-124.975-15.388-193.196-101.624-66.811-87.238-46.408-206.195 19.81-115.49 117.2-184.868 97.588-70.534 216.497-55.892z" style="-inkscape-font-specification:'Bauhaus 93, Normal';font-variant-ligatures:normal;font-variant-caps:normal;font-variant-numeric:normal;font-variant-east-asian:normal;font-variation-settings:normal"/></g></svg>